# 3ds Max Wavefront OBJ Exporter v0.97b - (c)2007 guruware
# File Created: 25.01.2017 22:38:51

mtllib Table.mtl

#
# object COM_Deco_OutdecoB_WoodTable01_SM01
#

v  -0.699379 0.577777 0.287473
v  0.699379 0.577777 0.287473
v  0.699379 0.577777 -0.287473
v  -0.699379 0.577777 -0.287473
v  -0.699379 0.551956 0.287473
v  -0.699379 0.551956 -0.287473
v  0.698431 0.551571 -0.287473
v  0.699379 0.551956 0.287473
v  0.625991 0.504081 0.251248
v  0.625991 0.503977 0.272738
v  -0.626084 0.503973 0.272836
v  -0.626084 0.503973 0.251281
v  0.626084 0.554970 0.272771
v  -0.626084 0.555029 0.272836
v  -0.626084 0.555029 0.251281
v  0.625991 0.555029 0.251281
v  -0.681702 -0.000645 0.275708
v  -0.681590 -0.000608 0.215389
v  -0.622412 -0.000645 0.215665
v  -0.622412 -0.000645 0.275708
v  -0.622514 0.556992 0.275483
v  -0.681956 0.556917 0.275452
v  -0.622412 0.556957 0.215665
v  -0.681702 0.556957 0.215665
v  -0.682344 -0.000645 -0.275454
v  -0.622024 -0.000608 -0.275343
v  -0.622300 -0.000645 -0.216165
v  -0.682344 -0.000645 -0.216165
v  -0.682118 0.556992 -0.216267
v  -0.682087 0.556917 -0.275709
v  -0.622300 0.556957 -0.216165
v  -0.622300 0.556957 -0.275454
v  -0.634262 0.053921 -0.223494
v  -0.634345 0.054465 0.223494
v  -0.670052 0.053921 0.223493
v  -0.669750 0.054769 -0.223494
v  -0.670052 0.106192 -0.223494
v  -0.670218 0.106192 0.223488
v  -0.634263 0.106192 0.223493
v  -0.634263 0.106192 -0.223494
v  -0.653995 0.501622 -0.223472
v  -0.654033 0.501672 0.223228
v  -0.675611 0.501622 0.223227
v  -0.675473 0.501701 -0.223472
v  -0.675683 0.554489 0.223220
v  -0.675611 0.554489 -0.223472
v  -0.653995 0.554489 -0.223472
v  -0.653995 0.554489 0.223227
v  0.681702 -0.000645 0.275708
v  0.622412 -0.000645 0.275708
v  0.622412 -0.000645 0.215665
v  0.681590 -0.000608 0.215389
v  0.681956 0.556917 0.275452
v  0.622514 0.556992 0.275483
v  0.622412 0.556957 0.215665
v  0.681702 0.556957 0.215665
v  0.682344 -0.000645 -0.275454
v  0.682344 -0.000645 -0.216165
v  0.622300 -0.000645 -0.216165
v  0.622024 -0.000608 -0.275343
v  0.682087 0.556917 -0.275709
v  0.682118 0.556992 -0.216267
v  0.622300 0.556957 -0.216165
v  0.622300 0.556957 -0.275454
v  0.697097 0.135710 0.100504
v  0.697097 0.102437 0.100504
v  0.697125 0.102656 -0.081309
v  0.697125 0.135460 -0.081309
v  -0.697541 0.102437 0.100504
v  -0.697541 0.135710 0.100504
v  -0.697541 0.135710 -0.081424
v  -0.697541 0.102437 -0.081424
v  0.625991 0.504081 -0.251248
v  -0.626084 0.503973 -0.251281
v  -0.626084 0.503973 -0.272836
v  0.625991 0.503977 -0.272738
v  0.626084 0.554970 -0.272771
v  -0.626084 0.555029 -0.272836
v  0.625991 0.555029 -0.251281
v  -0.626084 0.555029 -0.251281
v  0.634262 0.053921 -0.223494
v  0.669750 0.054769 -0.223494
v  0.670052 0.053921 0.223493
v  0.634345 0.054465 0.223494
v  0.670052 0.106192 -0.223494
v  0.634263 0.106192 -0.223494
v  0.634263 0.106192 0.223493
v  0.670218 0.106192 0.223488
v  0.653995 0.501622 -0.223472
v  0.675473 0.501701 -0.223472
v  0.675611 0.501622 0.223227
v  0.654033 0.501672 0.223228
v  0.675611 0.554489 -0.223472
v  0.675683 0.554489 0.223220
v  0.653995 0.554489 -0.223472
v  0.653995 0.554489 0.223227
# 96 vertices

vn 0.000000 1.000000 -0.000000
vn -1.000000 0.000000 -0.000000
vn -1.000000 -0.000000 -0.000000
vn 0.000000 0.000000 -1.000000
vn 0.000000 0.000000 1.000000
vn -0.000100 -1.000000 0.000500
vn 0.000000 -1.000000 0.000700
vn -0.000200 -1.000000 0.000200
vn -0.000300 -1.000000 -0.000000
vn 0.000000 -1.000000 -0.004800
vn 0.000100 -1.000000 -0.000100
vn 0.000100 -1.000000 -0.000000
vn 0.000100 -0.000600 1.000000
vn 0.000100 0.000000 1.000000
vn 0.000100 -0.000000 1.000000
vn -0.000000 0.000000 -1.000000
vn 0.000000 0.000600 -1.000000
vn -0.000300 -1.000000 -0.000300
vn -0.000600 -1.000000 -0.000600
vn 0.000000 -1.000000 -0.000000
vn -0.000000 0.000400 1.000000
vn 0.000000 0.000400 1.000000
vn -0.000500 0.000500 1.000000
vn 1.000000 0.000000 0.000100
vn 1.000000 0.000000 -0.000000
vn 1.000000 0.000200 0.001600
vn 1.000000 0.000200 0.001700
vn 0.004400 0.000500 -1.000000
vn 0.004700 0.000500 -1.000000
vn 0.000300 0.000000 -1.000000
vn -1.000000 -0.000400 -0.002000
vn -1.000000 -0.000500 -0.001900
vn -1.000000 -0.000200 -0.004100
vn -1.000000 -0.000200 -0.004300
vn 0.000300 -1.000000 -0.000300
vn 0.000600 -1.000000 -0.000600
vn -1.000000 0.000400 -0.000000
vn -1.000000 0.000400 0.000000
vn -1.000000 0.000500 -0.000500
vn -0.001700 0.000200 1.000000
vn 1.000000 0.000500 0.004400
vn 1.000000 0.000500 0.004700
vn 1.000000 0.000000 0.000300
vn 0.002000 -0.000400 -1.000000
vn 0.001900 -0.000500 -1.000000
vn 0.004100 -0.000200 -1.000000
vn 0.004300 -0.000200 -1.000000
vn -0.021900 -0.999800 -0.001800
vn 0.015200 -0.999900 0.001200
vn 0.013300 -0.999900 0.001100
vn -0.023900 -0.999700 -0.001900
vn -0.000000 1.000000 0.000000
vn -1.000000 -0.005700 -0.000400
vn -1.000000 -0.003200 -0.000700
vn -1.000000 -0.003400 -0.000700
vn -1.000000 -0.005900 -0.000400
vn 1.000000 -0.000100 0.000200
vn 1.000000 -0.001600 0.000000
vn 1.000000 -0.001500 0.000000
vn 1.000000 0.000000 0.000200
vn -0.003500 -1.000000 -0.000200
vn 0.002400 -1.000000 0.000100
vn 0.002200 -1.000000 0.000100
vn -0.003700 -1.000000 -0.000200
vn -1.000000 -0.002500 -0.000200
vn -1.000000 -0.001400 -0.000300
vn -1.000000 -0.002600 -0.000200
vn 1.000000 -0.000100 0.000100
vn 1.000000 -0.000700 0.000000
vn 0.000500 0.000500 1.000000
vn -1.000000 0.000000 0.000100
vn -1.000000 0.000200 0.001700
vn -1.000000 0.000200 0.001600
vn -0.004400 0.000500 -1.000000
vn -0.000300 0.000000 -1.000000
vn -0.004700 0.000500 -1.000000
vn 1.000000 -0.000400 -0.002000
vn 1.000000 -0.000200 -0.004300
vn 1.000000 -0.000200 -0.004100
vn 1.000000 -0.000500 -0.001900
vn 1.000000 0.000500 -0.000500
vn 1.000000 0.000400 0.000000
vn 0.001700 0.000200 1.000000
vn 0.001600 0.000200 1.000000
vn -1.000000 0.000500 0.004400
vn -1.000000 0.000000 0.000300
vn -1.000000 0.000500 0.004700
vn -0.002000 -0.000400 -1.000000
vn -0.004300 -0.000200 -1.000000
vn -0.004100 -0.000200 -1.000000
vn -0.001900 -0.000500 -1.000000
vn 0.000100 -1.000000 -0.001100
vn 0.000000 -1.000000 -0.000100
vn 0.000200 -1.000000 -0.001200
vn 0.000100 0.000000 -1.000000
vn 0.000200 1.000000 -0.001300
vn 0.000200 1.000000 -0.001400
vn 0.000000 1.000000 -0.000100
vn -0.000000 1.000000 -0.000000
vn 0.000000 -1.000000 0.004800
vn 0.000100 -1.000000 0.000100
vn 0.000100 -0.000600 -1.000000
vn 0.000100 -0.000000 -1.000000
vn -0.000000 0.000600 1.000000
vn 0.000000 0.000600 1.000000
vn -0.000000 0.000000 1.000000
vn 0.021900 -0.999800 -0.001800
vn 0.023900 -0.999700 -0.001900
vn -0.013300 -0.999900 0.001100
vn -0.015200 -0.999900 0.001200
vn 0.000000 1.000000 0.000000
vn 1.000000 -0.005700 -0.000400
vn 1.000000 -0.005900 -0.000400
vn 1.000000 -0.003400 -0.000700
vn 1.000000 -0.003200 -0.000700
vn -1.000000 -0.000100 0.000200
vn -1.000000 0.000000 0.000200
vn -1.000000 -0.001500 0.000000
vn -1.000000 -0.001600 0.000000
vn 0.003500 -1.000000 -0.000200
vn 0.003700 -1.000000 -0.000200
vn -0.002200 -1.000000 0.000100
vn -0.002400 -1.000000 0.000100
vn 1.000000 -0.002500 -0.000200
vn 1.000000 -0.002600 -0.000200
vn 1.000000 -0.001400 -0.000300
vn -1.000000 -0.000100 0.000100
vn -1.000000 -0.000700 0.000000
vn 1.000000 -0.001100 -0.000000
vn 0.999300 -0.036200 -0.001600
vn 0.999400 -0.035100 -0.001600
vn 1.000000 -0.000000 -0.000000
# 132 vertex normals

vt 0.917000 0.424800 0.424800
vt 0.029100 0.424800 0.424800
vt 0.029100 0.033700 0.033700
vt 0.917000 0.033700 0.033700
vt 0.939500 0.424800 0.424800
vt 0.922400 0.424800 0.424800
vt 0.922400 0.033700 0.033700
vt 0.939500 0.033700 0.033700
vt 0.917000 0.028800 0.028800
vt 0.029100 0.028800 0.028800
vt 0.029700 0.005400 0.005400
vt 0.917000 0.005400 0.005400
vt 0.917000 0.429200 0.429200
vt 0.917000 0.447800 0.447800
vt 0.029100 0.447800 0.447800
vt 0.029100 0.429200 0.429200
vt 0.931600 0.668200 0.668200
vt 0.931600 0.708300 0.708300
vt 0.003900 0.708300 0.708300
vt 0.003900 0.668200 0.668200
vt 0.931600 0.751200 0.751200
vt 0.003900 0.751200 0.751200
vt 0.003900 0.711900 0.711900
vt 0.931600 0.711900 0.711900
vt 0.931600 0.665000 0.665000
vt 0.003900 0.665000 0.665000
vt 0.003900 0.625500 0.625500
vt 0.931600 0.625500 0.625500
vt 0.056900 0.920500 0.920500
vt 0.056900 0.869100 0.869100
vt 0.008000 0.869100 0.869100
vt 0.008000 0.920500 0.920500
vt 0.540500 0.815100 0.815100
vt 0.540500 0.766000 0.766000
vt 0.059500 0.766000 0.766000
vt 0.059500 0.815100 0.815100
vt 0.540500 0.978600 0.978600
vt 0.540500 0.927200 0.927200
vt 0.059400 0.927200 0.927200
vt 0.059400 0.978600 0.978600
vt 0.540500 0.921700 0.921700
vt 0.540500 0.873000 0.873000
vt 0.059500 0.873000 0.873000
vt 0.059400 0.921700 0.921700
vt 0.540500 0.866000 0.866000
vt 0.540500 0.817100 0.817100
vt 0.059500 0.817100 0.817100
vt 0.059500 0.866000 0.866000
vt 0.547900 0.951500 0.951500
vt 0.855500 0.951500 0.951500
vt 0.855500 0.924600 0.924600
vt 0.547900 0.924600 0.924600
vt 0.547900 0.883500 0.883500
vt 0.855500 0.883500 0.883500
vt 0.855500 0.854700 0.854700
vt 0.547900 0.854700 0.854700
vt 0.547900 0.921300 0.921300
vt 0.855500 0.921300 0.921300
vt 0.855500 0.886700 0.886700
vt 0.547900 0.886700 0.886700
vt 0.547900 0.990400 0.990400
vt 0.855500 0.990400 0.990400
vt 0.855500 0.955700 0.955700
vt 0.547900 0.955700 0.955700
vt 0.858400 0.794600 0.794600
vt 0.546400 0.794600 0.794600
vt 0.546400 0.808200 0.808200
vt 0.858400 0.808200 0.808200
vt 0.858400 0.811400 0.811400
vt 0.546400 0.811400 0.811400
vt 0.546400 0.851400 0.851400
vt 0.858400 0.851400 0.851400
vt 0.858400 0.755900 0.755900
vt 0.546400 0.755900 0.755900
vt 0.546400 0.791900 0.791900
vt 0.858400 0.791900 0.791900
vt 0.031100 0.596400 0.596400
vt 0.009200 0.596400 0.596400
vt 0.009400 0.481900 0.481900
vt 0.030900 0.481900 0.481900
vt 0.938000 0.596200 0.596200
vt 0.916500 0.596200 0.596200
vt 0.916500 0.481900 0.481900
vt 0.938000 0.481900 0.481900
vt 0.035100 0.481900 0.481900
vt 0.912100 0.481900 0.481900
vt 0.912100 0.596200 0.596200
vt 0.035200 0.596400 0.596400
vt 0.912100 0.600300 0.600300
vt 0.912100 0.622100 0.622100
vt 0.035200 0.622300 0.622300
vt 0.035200 0.600600 0.600600
vt 0.912100 0.451700 0.451700
vt 0.912100 0.477100 0.477100
vt 0.035100 0.477100 0.477100
vt 0.035100 0.452100 0.452100
vt 0.008800 0.424800 0.424800
vt 0.009000 0.033700 0.033700
vt 0.025900 0.033700 0.033700
vt 0.025900 0.424800 0.424800
# 100 texture coords

o COM_Deco_OutdecoB_WoodTable01_SM01
g COM_Deco_OutdecoB_WoodTable01_SM01
usemtl Material__25
s 1
f 1/1/1 2/2/1 3/3/1 
s 2
f 3/3/1 4/4/1 1/1/1 
s 3
f 5/5/2 1/6/2 4/7/2 
s 4
f 4/7/3 6/8/3 5/5/3 
s 5
f 4/9/4 3/10/4 7/11/4 
s 6
f 7/11/4 6/12/4 4/9/4 
s 7
f 1/13/5 5/14/5 8/15/5 
s 8
f 8/15/5 2/16/5 1/13/5 
s 9
f 7/2/6 8/3/7 5/7/8 
s 10
f 5/7/8 6/1/9 7/2/6 
s 11
f 9/17/10 10/18/10 11/19/11 
s 12
f 11/19/11 12/20/12 9/17/10 
s 13
f 13/21/13 14/22/14 11/23/15 
s 14
f 11/23/15 10/24/13 13/21/13 
s 15
f 9/25/16 12/26/16 15/27/16 
s 16
f 15/27/17 16/28/17 9/25/17 
s 17
f 17/29/18 18/30/19 19/31/18 
s 18
f 19/31/18 20/32/20 17/29/18 
s 19
f 17/33/21 20/34/22 21/35/23 
s 20
f 21/35/23 22/36/23 17/33/21 
s 21
f 20/37/24 19/38/25 23/39/26 
s 22
f 23/39/26 21/40/27 20/37/24 
s 23
f 19/41/28 18/42/29 24/43/30 
s 24
f 24/43/30 23/44/4 19/41/28 
s 25
f 18/45/31 17/46/32 22/47/33 
s 26
f 22/47/33 24/48/34 18/45/31 
s 27
f 25/29/35 26/30/36 27/31/35 
s 28
f 27/31/35 28/32/20 25/29/35 
s 29
f 25/33/37 28/34/38 29/35/39 
s 30
f 29/35/39 30/36/39 25/33/37 
s 31
f 28/37/5 27/38/5 31/39/5 
s 32
f 31/39/40 29/40/40 28/37/40 
s 33
f 27/41/41 26/42/42 32/43/43 
s 34
f 32/43/43 31/44/25 27/41/41 
s 35
f 26/45/44 25/46/45 30/47/46 
s 36
f 30/47/46 32/48/47 26/45/44 
s 37
f 33/49/48 34/50/49 35/51/50 
s 38
f 35/51/50 36/52/51 33/49/48 
s 39
f 37/53/52 38/54/52 39/55/52 
s 40
f 39/55/52 40/56/52 37/53/52 
s 41
f 36/57/53 35/58/54 38/59/55 
s 42
f 38/59/55 37/60/56 36/57/53 
s 43
f 40/61/57 39/62/58 34/63/59 
s 44
f 34/63/59 33/64/60 40/61/57 
s 45
f 41/65/61 42/66/62 43/67/63 
s 46
f 43/67/63 44/68/64 41/65/61 
s 47
f 44/69/65 43/70/66 45/71/66 
s 48
f 45/71/66 46/72/67 44/69/65 
s 49
f 47/73/68 48/74/69 42/75/69 
s 50
f 42/75/69 41/76/24 47/73/68 
s 51
f 49/29/35 50/32/20 51/31/35 
s 52
f 51/31/35 52/30/36 49/29/35 
s 53
f 49/33/22 53/36/70 54/35/70 
s 54
f 54/35/70 50/34/21 49/33/22 
s 55
f 50/37/71 54/40/72 55/39/73 
s 56
f 55/39/73 51/38/2 50/37/71 
s 57
f 51/41/74 55/44/4 56/43/75 
s 58
f 56/43/75 52/42/76 51/41/74 
s 59
f 52/45/77 56/48/78 53/47/79 
s 60
f 53/47/79 49/46/80 52/45/77 
s 61
f 57/29/18 58/32/20 59/31/18 
s 62
f 59/31/18 60/30/19 57/29/18 
s 63
f 57/33/81 61/36/81 62/35/81 
s 64
f 62/35/82 58/34/82 57/33/82 
s 65
f 58/37/14 62/40/83 63/39/84 
s 66
f 63/39/84 59/38/5 58/37/14 
s 67
f 59/41/85 63/44/2 64/43/86 
s 68
f 64/43/86 60/42/87 59/41/85 
s 69
f 60/45/88 64/48/89 61/47/90 
s 70
f 61/47/90 57/46/91 60/45/88 
s 71
f 65/77/60 66/78/60 67/79/60 
s 72
f 67/79/60 68/80/60 65/77/60 
s 73
f 69/81/2 70/82/2 71/83/2 
s 74
f 71/83/2 72/84/2 69/81/2 
s 75
f 66/85/92 69/86/20 72/87/93 
s 76
f 72/87/93 67/88/94 66/85/92 
s 77
f 70/89/5 69/90/5 66/91/5 
s 78
f 66/91/5 65/92/5 70/89/5 
s 79
f 72/93/95 71/94/95 68/95/95 
s 80
f 68/95/95 67/96/95 72/93/95 
s 81
f 65/88/96 68/85/97 71/86/98 
s 82
f 71/86/98 70/87/99 65/88/96 
s 83
f 73/17/100 74/20/12 75/19/101 
s 84
f 75/19/101 76/18/100 73/17/100 
s 85
f 77/21/102 76/24/102 75/23/103 
s 86
f 75/23/103 78/22/95 77/21/102 
s 87
f 73/25/104 79/28/105 80/27/106 
s 88
f 80/27/106 74/26/106 73/25/104 
s 89
f 81/49/107 82/52/108 83/51/109 
s 90
f 83/51/109 84/50/110 81/49/107 
s 91
f 85/53/111 86/56/111 87/55/111 
s 92
f 87/55/111 88/54/111 85/53/111 
s 93
f 82/57/112 85/60/113 88/59/114 
s 94
f 88/59/114 83/58/115 82/57/112 
s 95
f 86/61/116 81/64/117 84/63/118 
s 96
f 84/63/118 87/62/119 86/61/116 
s 97
f 89/65/120 90/68/121 91/67/122 
s 98
f 91/67/122 92/66/123 89/65/120 
s 99
f 90/69/124 93/72/125 94/71/126 
s 100
f 94/71/126 91/70/126 90/69/124 
s 101
f 95/73/127 89/76/71 92/75/128 
s 102
f 92/75/128 96/74/128 95/73/127 
s 103
f 8/97/129 7/98/130 3/99/131 
s 104
f 3/99/131 2/100/132 8/97/129 
# 0 polygons - 104 triangles

