# 3ds Max Wavefront OBJ Exporter v0.97b - (c)2007 guruware
# File Created: 13.02.2017 21:43:27

mtllib Eimer.mtl

#
# object Bucket
#

v  0.168453 0.078740 0.168454
v  -0.168454 0.078740 -0.168453
v  -0.168454 0.078740 0.168454
v  0.168453 0.078740 -0.168453
v  -0.260598 0.492126 0.260598
v  0.260597 0.492126 0.260598
v  0.260597 0.492126 -0.260597
v  -0.260598 0.492126 -0.260597
v  0.246063 0.000000 -0.246063
v  -0.246063 0.000000 0.246063
v  -0.246063 0.000000 -0.246063
v  0.246063 0.000000 0.246063
v  0.319882 0.492126 0.319882
v  -0.319882 0.492126 0.319882
v  -0.319882 0.492126 -0.319882
v  0.319882 0.492126 -0.319882
# 16 vertices

vn 0.000000 1.000000 -0.000000
vn 0.000000 0.217562 -0.976047
vn -0.976047 0.217562 -0.000000
vn 0.000000 0.217562 0.976047
vn 0.976047 0.217562 -0.000000
vn 0.000000 -1.000000 -0.000000
vn 0.000000 -0.148340 0.988936
vn -0.988936 -0.148340 -0.000000
vn 0.000000 -0.148341 -0.988936
vn 0.988936 -0.148341 -0.000000
# 10 vertex normals

vt 0.763305 0.236694 0.160000
vt 0.236694 0.763306 0.160000
vt 0.236694 0.236694 0.160000
vt 0.763306 0.763306 0.160000
vt 0.907334 1.000000 0.092666
vt 0.236695 0.160000 0.236694
vt 0.763306 0.160000 0.236694
vt 0.092666 1.000000 0.092666
vt 0.092666 1.000000 0.907334
vt 0.763306 0.160000 0.763305
vt 0.907334 1.000000 0.907334
vt 0.236694 0.160000 0.763306
vt 0.763306 0.160000 0.763306
vt 0.236694 0.160000 0.236694
vt 0.115385 0.884615 0.000000
vt 0.884615 0.115385 0.000000
vt 0.884615 0.884615 0.000000
vt 0.115385 0.115385 0.000000
vt 1.000000 1.000000 0.000000
vt 0.115385 0.000000 0.115385
vt 0.884615 0.000000 0.115385
vt 0.000000 1.000000 0.000000
vt 1.000000 1.000000 1.000000
vt 0.115385 0.000000 0.884615
vt 0.884615 0.000000 0.884615
vt 0.000000 1.000000 1.000000
vt 0.000000 0.000000 1.000000
vt 0.092666 0.092666 1.000000
vt 1.000000 0.000000 1.000000
vt 0.907334 0.092666 1.000000
vt 0.907334 0.907334 1.000000
vt 0.092666 0.907334 1.000000
# 32 texture coords

o Bucket
g Bucket
usemtl material
s off
f 1/1/1 2/2/1 3/3/1 
f 2/2/1 1/1/1 4/4/1 
f 5/5/2 1/6/2 3/7/2 
f 1/6/2 5/5/2 6/8/2 
f 7/9/3 1/10/3 6/11/3 
f 1/10/3 7/9/3 4/12/3 
f 7/11/4 2/12/4 4/13/4 
f 2/12/4 7/11/4 8/9/4 
f 3/14/5 8/5/5 5/8/5 
f 8/5/5 3/14/5 2/7/5 
f 9/15/6 10/16/6 11/17/6 
f 10/16/6 9/15/6 12/18/6 
f 13/19/7 10/20/7 12/21/7 
f 10/20/7 13/19/7 14/22/7 
f 15/22/8 10/21/8 14/19/8 
f 10/21/8 15/22/8 11/20/8 
f 15/23/9 9/24/9 11/25/9 
f 9/24/9 15/23/9 16/26/9 
f 12/24/10 16/23/10 13/26/10 
f 16/23/10 12/24/10 9/25/10 
f 14/27/1 5/28/1 15/26/1 
f 5/28/1 14/27/1 13/29/1 
f 5/28/1 13/29/1 6/30/1 
f 6/30/1 13/29/1 7/31/1 
f 15/26/1 8/32/1 16/23/1 
f 8/32/1 15/26/1 5/28/1 
f 16/23/1 8/32/1 7/31/1 
f 16/23/1 7/31/1 13/29/1 
# 28 faces

