# 3ds Max Wavefront OBJ Exporter v0.97b - (c)2007 guruware
# File Created: 24.01.2017 01:53:51

mtllib Ground.mtl

#
# object Ground
#

v  -16.756935 -0.000000 13.371324
v  -16.756935 -0.000000 15.911065
v  -14.217195 -0.000000 13.371324
v  -14.217195 -0.000000 15.911065
v  -11.677452 -0.000000 13.371324
v  -11.677452 -0.000000 15.911065
v  -9.137711 -0.000000 13.371324
v  -9.137711 -0.000000 15.911065
v  -6.597969 -0.000000 13.371324
v  -6.597969 -0.000000 15.911065
v  -4.058228 -0.000000 13.371324
v  -4.058228 -0.000000 15.911065
v  -1.518485 -0.000000 13.371324
v  -1.518485 -0.000000 15.911065
v  1.021255 -0.000000 13.371324
v  1.021255 -0.000000 15.911065
v  3.560997 -0.000000 13.371324
v  3.560997 -0.000000 15.911065
v  6.100739 -0.000000 13.371324
v  6.100739 -0.000000 15.911065
v  8.640481 -0.000000 13.371324
v  8.640481 -0.000000 15.911065
v  -6.597969 -0.000000 10.831581
v  -4.058228 -0.000000 10.831581
v  -1.518485 -0.000000 10.831581
v  1.021255 -0.000000 10.831581
v  3.560997 -0.000000 10.831581
v  6.100739 -0.000000 10.831581
v  8.640481 -0.000000 10.831581
v  -4.058228 -0.000000 8.291840
v  -6.597969 -0.000000 8.291840
v  -9.137711 -0.000000 10.831581
v  -11.677452 -0.000000 10.831581
v  -14.217195 -0.000000 10.831581
v  -16.756935 -0.000000 10.831581
v  -14.217195 -0.000000 8.291840
v  -16.756935 -0.000000 8.291840
v  -11.677452 -0.000000 8.291840
v  -9.137711 -0.000000 8.291840
v  8.640481 -0.000000 8.291840
v  -14.217195 -0.000000 5.752098
v  -16.756935 -0.000000 5.752098
v  -11.677452 -0.000000 5.752098
v  -9.137711 -0.000000 5.752098
v  -6.597969 -0.000000 5.752098
v  -4.058228 -0.000000 5.752098
v  -1.518485 -0.000000 5.752098
v  -1.518485 -0.000000 8.291840
v  1.021255 -0.000000 8.291840
v  3.560997 -0.000000 8.291840
v  6.100739 -0.000000 8.291840
v  1.021255 -0.000000 5.752098
v  3.560997 -0.000000 5.752098
v  6.100739 -0.000000 5.752098
v  8.640481 -0.000000 5.752098
v  1.021255 0.000000 3.212357
v  -1.518485 0.000000 3.212357
v  3.560997 0.000000 3.212357
v  6.100739 0.000000 3.212357
v  8.640481 0.000000 3.212357
v  1.021255 0.000000 0.672614
v  -1.518485 0.000000 0.672614
v  -4.058228 0.000000 3.212357
v  -6.597969 0.000000 3.212357
v  -9.137711 0.000000 3.212357
v  -11.677452 0.000000 3.212357
v  -14.217195 0.000000 3.212357
v  -16.756935 0.000000 3.212357
v  -14.217195 0.000000 0.672614
v  -16.756935 0.000000 0.672614
v  -11.677452 0.000000 0.672614
v  -9.137711 0.000000 0.672614
v  -6.597969 0.000000 0.672614
v  -4.058228 0.000000 0.672614
v  -14.217195 0.000000 -1.867126
v  -16.756935 0.000000 -1.867126
v  -11.677452 0.000000 -1.867126
v  -9.137711 0.000000 -1.867126
v  -6.597969 0.000000 -1.867126
v  -4.058228 0.000000 -1.867126
v  -1.518485 0.000000 -1.867126
v  1.021255 0.000000 -1.867126
v  3.560997 0.000000 -1.867126
v  3.560997 0.000000 0.672614
v  6.100739 0.000000 0.672614
v  8.640481 0.000000 0.672614
v  6.100739 0.000000 -1.867126
v  8.640481 0.000000 -1.867126
v  -6.597969 0.000000 -4.406868
v  -4.058228 0.000000 -4.406868
v  -1.518485 0.000000 -4.406868
v  1.021255 0.000000 -4.406868
v  3.560997 0.000000 -4.406868
v  6.100739 0.000000 -4.406868
v  8.640481 0.000000 -4.406868
v  -4.058228 0.000000 -6.946610
v  -6.597969 0.000000 -6.946610
v  -9.137711 0.000000 -4.406868
v  -11.677452 0.000000 -4.406868
v  -14.217195 0.000000 -4.406868
v  -16.756935 0.000000 -4.406868
v  -14.217195 0.000000 -6.946610
v  -16.756935 0.000000 -6.946610
v  -11.677452 0.000000 -6.946610
v  -9.137711 0.000000 -6.946610
v  8.640481 0.000000 -6.946610
v  -14.217195 0.000000 -9.486352
v  -16.756935 0.000000 -9.486352
v  -11.677452 0.000000 -9.486352
v  -9.137711 0.000000 -9.486352
v  -6.597969 0.000000 -9.486352
v  -4.058228 0.000000 -9.486352
v  -1.518485 0.000000 -9.486352
v  -1.518485 0.000000 -6.946610
v  1.021255 0.000000 -6.946610
v  3.560997 0.000000 -6.946610
v  6.100739 0.000000 -6.946610
v  1.021255 0.000000 -9.486352
v  3.560997 0.000000 -9.486352
v  6.100739 0.000000 -9.486352
v  8.640481 0.000000 -9.486352
# 121 vertices

vn 0.000000 1.000000 0.000000
# 1 vertex normals

vt 0.000000 0.100000 0.100000
vt 0.000000 0.000000 0.000000
vt 0.100000 0.100000 0.100000
vt 0.100000 0.000000 0.000000
vt 0.200000 0.100000 0.100000
vt 0.200000 0.000000 0.000000
vt 0.300000 0.100000 0.100000
vt 0.300000 0.000000 0.000000
vt 0.400000 0.100000 0.100000
vt 0.400000 0.000000 0.000000
vt 0.500000 0.100000 0.100000
vt 0.500000 0.000000 0.000000
vt 0.600000 0.100000 0.100000
vt 0.600000 0.000000 0.000000
vt 0.700000 0.100000 0.100000
vt 0.700000 0.000000 0.000000
vt 0.800000 0.100000 0.100000
vt 0.800000 0.000000 0.000000
vt 0.900000 0.100000 0.100000
vt 0.900000 0.000000 0.000000
vt 1.000000 0.100000 0.100000
vt 1.000000 0.000000 0.000000
vt 0.400000 0.200000 0.200000
vt 0.500000 0.200000 0.200000
vt 0.600000 0.200000 0.200000
vt 0.700000 0.200000 0.200000
vt 0.800000 0.200000 0.200000
vt 0.900000 0.200000 0.200000
vt 1.000000 0.200000 0.200000
vt 0.500000 0.300000 0.300000
vt 0.400000 0.300000 0.300000
vt 0.300000 0.200000 0.200000
vt 0.200000 0.200000 0.200000
vt 0.100000 0.200000 0.200000
vt 0.000000 0.200000 0.200000
vt 0.100000 0.300000 0.300000
vt 0.000000 0.300000 0.300000
vt 0.200000 0.300000 0.300000
vt 0.300000 0.300000 0.300000
vt 1.000000 0.300000 0.300000
vt 0.100000 0.400000 0.400000
vt 0.000000 0.400000 0.400000
vt 0.200000 0.400000 0.400000
vt 0.300000 0.400000 0.400000
vt 0.400000 0.400000 0.400000
vt 0.500000 0.400000 0.400000
vt 0.600000 0.400000 0.400000
vt 0.600000 0.300000 0.300000
vt 0.700000 0.300000 0.300000
vt 0.800000 0.300000 0.300000
vt 0.900000 0.300000 0.300000
vt 0.700000 0.400000 0.400000
vt 0.800000 0.400000 0.400000
vt 0.900000 0.400000 0.400000
vt 1.000000 0.400000 0.400000
vt 0.700000 0.500000 0.500000
vt 0.600000 0.500000 0.500000
vt 0.800000 0.500000 0.500000
vt 0.900000 0.500000 0.500000
vt 1.000000 0.500000 0.500000
vt 0.700000 0.600000 0.600000
vt 0.600000 0.600000 0.600000
vt 0.500000 0.500000 0.500000
vt 0.400000 0.500000 0.500000
vt 0.300000 0.500000 0.500000
vt 0.200000 0.500000 0.500000
vt 0.100000 0.500000 0.500000
vt 0.000000 0.500000 0.500000
vt 0.100000 0.600000 0.600000
vt 0.000000 0.600000 0.600000
vt 0.200000 0.600000 0.600000
vt 0.300000 0.600000 0.600000
vt 0.400000 0.600000 0.600000
vt 0.500000 0.600000 0.600000
vt 0.100000 0.700000 0.700000
vt 0.000000 0.700000 0.700000
vt 0.200000 0.700000 0.700000
vt 0.300000 0.700000 0.700000
vt 0.400000 0.700000 0.700000
vt 0.500000 0.700000 0.700000
vt 0.600000 0.700000 0.700000
vt 0.700000 0.700000 0.700000
vt 0.800000 0.700000 0.700000
vt 0.800000 0.600000 0.600000
vt 0.900000 0.600000 0.600000
vt 1.000000 0.600000 0.600000
vt 0.900000 0.700000 0.700000
vt 1.000000 0.700000 0.700000
vt 0.400000 0.800000 0.800000
vt 0.500000 0.800000 0.800000
vt 0.600000 0.800000 0.800000
vt 0.700000 0.800000 0.800000
vt 0.800000 0.800000 0.800000
vt 0.900000 0.800000 0.800000
vt 1.000000 0.800000 0.800000
vt 0.500000 0.900000 0.900000
vt 0.400000 0.900000 0.900000
vt 0.300000 0.800000 0.800000
vt 0.200000 0.800000 0.800000
vt 0.100000 0.800000 0.800000
vt 0.000000 0.800000 0.800000
vt 0.100000 0.900000 0.900000
vt 0.000000 0.900000 0.900000
vt 0.200000 0.900000 0.900000
vt 0.300000 0.900000 0.900000
vt 1.000000 0.900000 0.900000
vt 0.100000 1.000000 1.000000
vt 0.000000 1.000000 1.000000
vt 0.200000 1.000000 1.000000
vt 0.300000 1.000000 1.000000
vt 0.400000 1.000000 1.000000
vt 0.500000 1.000000 1.000000
vt 0.600000 1.000000 1.000000
vt 0.600000 0.900000 0.900000
vt 0.700000 0.900000 0.900000
vt 0.800000 0.900000 0.900000
vt 0.900000 0.900000 0.900000
vt 0.700000 1.000000 1.000000
vt 0.800000 1.000000 1.000000
vt 0.900000 1.000000 1.000000
vt 1.000000 1.000000 1.000000
# 121 texture coords

o Ground
g Ground
usemtl Material_Ground
s 1
f 1/1/1 2/2/1 3/3/1 
f 3/3/1 2/2/1 4/4/1 
f 3/3/1 4/4/1 5/5/1 
f 5/5/1 4/4/1 6/6/1 
f 5/5/1 6/6/1 7/7/1 
f 7/7/1 6/6/1 8/8/1 
f 7/7/1 8/8/1 9/9/1 
f 9/9/1 8/8/1 10/10/1 
f 9/9/1 10/10/1 11/11/1 
f 11/11/1 10/10/1 12/12/1 
f 11/11/1 12/12/1 13/13/1 
f 13/13/1 12/12/1 14/14/1 
f 13/13/1 14/14/1 15/15/1 
f 15/15/1 14/14/1 16/16/1 
f 15/15/1 16/16/1 17/17/1 
f 17/17/1 16/16/1 18/18/1 
f 17/17/1 18/18/1 19/19/1 
f 19/19/1 18/18/1 20/20/1 
f 19/19/1 20/20/1 21/21/1 
f 21/21/1 20/20/1 22/22/1 
f 23/23/1 7/7/1 9/9/1 
f 23/23/1 9/9/1 24/24/1 
f 24/24/1 9/9/1 11/11/1 
f 24/24/1 11/11/1 25/25/1 
f 25/25/1 11/11/1 13/13/1 
f 25/25/1 13/13/1 26/26/1 
f 26/26/1 13/13/1 15/15/1 
f 26/26/1 15/15/1 27/27/1 
f 27/27/1 15/15/1 17/17/1 
f 27/27/1 17/17/1 28/28/1 
f 28/28/1 17/17/1 19/19/1 
f 28/28/1 19/19/1 29/29/1 
f 29/29/1 19/19/1 21/21/1 
f 30/30/1 23/23/1 24/24/1 
f 31/31/1 23/23/1 30/30/1 
f 31/31/1 32/32/1 23/23/1 
f 32/32/1 7/7/1 23/23/1 
f 32/32/1 5/5/1 7/7/1 
f 33/33/1 5/5/1 32/32/1 
f 33/33/1 3/3/1 5/5/1 
f 34/34/1 3/3/1 33/33/1 
f 34/34/1 1/1/1 3/3/1 
f 35/35/1 1/1/1 34/34/1 
f 36/36/1 35/35/1 34/34/1 
f 37/37/1 35/35/1 36/36/1 
f 36/36/1 34/34/1 38/38/1 
f 38/38/1 34/34/1 33/33/1 
f 38/38/1 33/33/1 39/39/1 
f 39/39/1 33/33/1 32/32/1 
f 39/39/1 32/32/1 31/31/1 
f 40/40/1 28/28/1 29/29/1 
f 41/41/1 37/37/1 36/36/1 
f 42/42/1 37/37/1 41/41/1 
f 41/41/1 36/36/1 43/43/1 
f 43/43/1 36/36/1 38/38/1 
f 43/43/1 38/38/1 44/44/1 
f 44/44/1 38/38/1 39/39/1 
f 44/44/1 39/39/1 45/45/1 
f 45/45/1 39/39/1 31/31/1 
f 45/45/1 31/31/1 46/46/1 
f 46/46/1 31/31/1 30/30/1 
f 46/46/1 30/30/1 47/47/1 
f 47/47/1 30/30/1 48/48/1 
f 30/30/1 24/24/1 48/48/1 
f 48/48/1 24/24/1 25/25/1 
f 48/48/1 25/25/1 49/49/1 
f 49/49/1 25/25/1 26/26/1 
f 49/49/1 26/26/1 50/50/1 
f 50/50/1 26/26/1 27/27/1 
f 50/50/1 27/27/1 51/51/1 
f 51/51/1 27/27/1 28/28/1 
f 51/51/1 28/28/1 40/40/1 
f 47/47/1 48/48/1 52/52/1 
f 52/52/1 48/48/1 49/49/1 
f 52/52/1 49/49/1 53/53/1 
f 53/53/1 49/49/1 50/50/1 
f 53/53/1 50/50/1 54/54/1 
f 54/54/1 50/50/1 51/51/1 
f 54/54/1 51/51/1 55/55/1 
f 55/55/1 51/51/1 40/40/1 
f 56/56/1 47/47/1 52/52/1 
f 57/57/1 47/47/1 56/56/1 
f 56/56/1 52/52/1 58/58/1 
f 58/58/1 52/52/1 53/53/1 
f 58/58/1 53/53/1 59/59/1 
f 59/59/1 53/53/1 54/54/1 
f 59/59/1 54/54/1 60/60/1 
f 60/60/1 54/54/1 55/55/1 
f 61/61/1 57/57/1 56/56/1 
f 62/62/1 57/57/1 61/61/1 
f 62/62/1 63/63/1 57/57/1 
f 63/63/1 46/46/1 57/57/1 
f 63/63/1 45/45/1 46/46/1 
f 64/64/1 45/45/1 63/63/1 
f 64/64/1 44/44/1 45/45/1 
f 65/65/1 44/44/1 64/64/1 
f 65/65/1 43/43/1 44/44/1 
f 66/66/1 43/43/1 65/65/1 
f 66/66/1 41/41/1 43/43/1 
f 67/67/1 41/41/1 66/66/1 
f 67/67/1 42/42/1 41/41/1 
f 68/68/1 42/42/1 67/67/1 
f 69/69/1 68/68/1 67/67/1 
f 70/70/1 68/68/1 69/69/1 
f 69/69/1 67/67/1 71/71/1 
f 71/71/1 67/67/1 66/66/1 
f 71/71/1 66/66/1 72/72/1 
f 72/72/1 66/66/1 65/65/1 
f 72/72/1 65/65/1 73/73/1 
f 73/73/1 65/65/1 64/64/1 
f 73/73/1 64/64/1 74/74/1 
f 74/74/1 64/64/1 63/63/1 
f 74/74/1 63/63/1 62/62/1 
f 75/75/1 70/70/1 69/69/1 
f 76/76/1 70/70/1 75/75/1 
f 75/75/1 69/69/1 77/77/1 
f 77/77/1 69/69/1 71/71/1 
f 77/77/1 71/71/1 78/78/1 
f 78/78/1 71/71/1 72/72/1 
f 78/78/1 72/72/1 79/79/1 
f 79/79/1 72/72/1 73/73/1 
f 79/79/1 73/73/1 80/80/1 
f 80/80/1 73/73/1 74/74/1 
f 80/80/1 74/74/1 81/81/1 
f 81/81/1 74/74/1 62/62/1 
f 81/81/1 62/62/1 82/82/1 
f 82/82/1 62/62/1 61/61/1 
f 82/82/1 61/61/1 83/83/1 
f 83/83/1 61/61/1 84/84/1 
f 61/61/1 56/56/1 84/84/1 
f 84/84/1 56/56/1 58/58/1 
f 84/84/1 58/58/1 85/85/1 
f 85/85/1 58/58/1 59/59/1 
f 85/85/1 59/59/1 86/86/1 
f 86/86/1 59/59/1 60/60/1 
f 83/83/1 84/84/1 87/87/1 
f 87/87/1 84/84/1 85/85/1 
f 87/87/1 85/85/1 88/88/1 
f 88/88/1 85/85/1 86/86/1 
f 89/89/1 78/78/1 79/79/1 
f 89/89/1 79/79/1 90/90/1 
f 90/90/1 79/79/1 80/80/1 
f 90/90/1 80/80/1 91/91/1 
f 91/91/1 80/80/1 81/81/1 
f 91/91/1 81/81/1 92/92/1 
f 92/92/1 81/81/1 82/82/1 
f 92/92/1 82/82/1 93/93/1 
f 93/93/1 82/82/1 83/83/1 
f 93/93/1 83/83/1 94/94/1 
f 94/94/1 83/83/1 87/87/1 
f 94/94/1 87/87/1 95/95/1 
f 95/95/1 87/87/1 88/88/1 
f 96/96/1 89/89/1 90/90/1 
f 97/97/1 89/89/1 96/96/1 
f 97/97/1 98/98/1 89/89/1 
f 98/98/1 78/78/1 89/89/1 
f 98/98/1 77/77/1 78/78/1 
f 99/99/1 77/77/1 98/98/1 
f 99/99/1 75/75/1 77/77/1 
f 100/100/1 75/75/1 99/99/1 
f 100/100/1 76/76/1 75/75/1 
f 101/101/1 76/76/1 100/100/1 
f 102/102/1 101/101/1 100/100/1 
f 103/103/1 101/101/1 102/102/1 
f 102/102/1 100/100/1 104/104/1 
f 104/104/1 100/100/1 99/99/1 
f 104/104/1 99/99/1 105/105/1 
f 105/105/1 99/99/1 98/98/1 
f 105/105/1 98/98/1 97/97/1 
f 106/106/1 94/94/1 95/95/1 
f 107/107/1 103/103/1 102/102/1 
f 108/108/1 103/103/1 107/107/1 
f 107/107/1 102/102/1 109/109/1 
f 109/109/1 102/102/1 104/104/1 
f 109/109/1 104/104/1 110/110/1 
f 110/110/1 104/104/1 105/105/1 
f 110/110/1 105/105/1 111/111/1 
f 111/111/1 105/105/1 97/97/1 
f 111/111/1 97/97/1 112/112/1 
f 112/112/1 97/97/1 96/96/1 
f 112/112/1 96/96/1 113/113/1 
f 113/113/1 96/96/1 114/114/1 
f 96/96/1 90/90/1 114/114/1 
f 114/114/1 90/90/1 91/91/1 
f 114/114/1 91/91/1 115/115/1 
f 115/115/1 91/91/1 92/92/1 
f 115/115/1 92/92/1 116/116/1 
f 116/116/1 92/92/1 93/93/1 
f 116/116/1 93/93/1 117/117/1 
f 117/117/1 93/93/1 94/94/1 
f 117/117/1 94/94/1 106/106/1 
f 113/113/1 114/114/1 118/118/1 
f 118/118/1 114/114/1 115/115/1 
f 118/118/1 115/115/1 119/119/1 
f 119/119/1 115/115/1 116/116/1 
f 119/119/1 116/116/1 120/120/1 
f 120/120/1 116/116/1 117/117/1 
f 120/120/1 117/117/1 121/121/1 
f 121/121/1 117/117/1 106/106/1 
f 57/57/1 46/46/1 47/47/1 
# 0 polygons - 200 triangles

