{
  "accessors": {
    "accessor_index_0": {
      "bufferView": "bufferView_1",
      "byteOffset": 0,
      "byteStride": 0,
      "componentType": 5125,
      "count": 2580,
      "type": "SCALAR",
      "min": [
        0
      ],
      "max": [
        74119
      ]
    },
    "accessor_index_1": {
      "bufferView": "bufferView_1",
      "byteOffset": 10320,
      "byteStride": 0,
      "componentType": 5125,
      "count": 768,
      "type": "SCALAR",
      "min": [
        5
      ],
      "max": [
        75664
      ]
    },
    "accessor_index_2": {
      "bufferView": "bufferView_1",
      "byteOffset": 13392,
      "byteStride": 0,
      "componentType": 5125,
      "count": 11544,
      "type": "SCALAR",
      "min": [
        238
      ],
      "max": [
        4917
      ]
    },
    "accessor_index_3": {
      "bufferView": "bufferView_1",
      "byteOffset": 59568,
      "byteStride": 0,
      "componentType": 5125,
      "count": 600,
      "type": "SCALAR",
      "min": [
        4918
      ],
      "max": [
        5407
      ]
    },
    "accessor_index_4": {
      "bufferView": "bufferView_1",
      "byteOffset": 61968,
      "byteStride": 0,
      "componentType": 5125,
      "count": 360,
      "type": "SCALAR",
      "min": [
        5408
      ],
      "max": [
        5767
      ]
    },
    "accessor_index_5": {
      "bufferView": "bufferView_1",
      "byteOffset": 63408,
      "byteStride": 0,
      "componentType": 5125,
      "count": 552,
      "type": "SCALAR",
      "min": [
        5768
      ],
      "max": [
        6103
      ]
    },
    "accessor_index_6": {
      "bufferView": "bufferView_1",
      "byteOffset": 65616,
      "byteStride": 0,
      "componentType": 5125,
      "count": 312,
      "type": "SCALAR",
      "min": [
        6104
      ],
      "max": [
        6351
      ]
    },
    "accessor_index_7": {
      "bufferView": "bufferView_1",
      "byteOffset": 66864,
      "byteStride": 0,
      "componentType": 5125,
      "count": 4338,
      "type": "SCALAR",
      "min": [
        6410
      ],
      "max": [
        74462
      ]
    },
    "accessor_index_8": {
      "bufferView": "bufferView_1",
      "byteOffset": 84216,
      "byteStride": 0,
      "componentType": 5125,
      "count": 16050,
      "type": "SCALAR",
      "min": [
        6781
      ],
      "max": [
        76018
      ]
    },
    "accessor_index_9": {
      "bufferView": "bufferView_1",
      "byteOffset": 148416,
      "byteStride": 0,
      "componentType": 5125,
      "count": 531,
      "type": "SCALAR",
      "min": [
        22185
      ],
      "max": [
        22526
      ]
    },
    "accessor_index_10": {
      "bufferView": "bufferView_1",
      "byteOffset": 150540,
      "byteStride": 0,
      "componentType": 5125,
      "count": 135,
      "type": "SCALAR",
      "min": [
        22527
      ],
      "max": [
        22642
      ]
    },
    "accessor_index_11": {
      "bufferView": "bufferView_1",
      "byteOffset": 151080,
      "byteStride": 0,
      "componentType": 5125,
      "count": 68880,
      "type": "SCALAR",
      "min": [
        23528
      ],
      "max": [
        64659
      ]
    },
    "accessor_index_12": {
      "bufferView": "bufferView_1",
      "byteOffset": 426600,
      "byteStride": 0,
      "componentType": 5125,
      "count": 11484,
      "type": "SCALAR",
      "min": [
        64660
      ],
      "max": [
        70599
      ]
    },
    "accessor_position": {
      "bufferView": "bufferView_0",
      "byteOffset": 0,
      "byteStride": 0,
      "componentType": 5126,
      "count": 76019,
      "min": [
        -148.134033203125,
        -3.060547113418579,
        -166.52474975585938
      ],
      "max": [
        204.8722686767578,
        61.50196075439453,
        220.82754516601562
      ],
      "type": "VEC3"
    },
    "accessor_normal": {
      "bufferView": "bufferView_0",
      "byteOffset": 912228,
      "byteStride": 0,
      "componentType": 5126,
      "count": 76019,
      "type": "VEC3",
      "min": [
        -0.9999536871910095,
        -1,
        -0.9999635219573975
      ],
      "max": [
        1,
        1,
        0.9999635219573975
      ]
    },
    "accessor_uv": {
      "bufferView": "bufferView_0",
      "byteOffset": 1824456,
      "byteStride": 0,
      "componentType": 5126,
      "count": 76019,
      "type": "VEC2",
      "min": [
        -109.77310180664062,
        -77.1231689453125
      ],
      "max": [
        110.42739868164062,
        37.70772933959961
      ]
    }
  },
  "asset": {
    "generator": "OBJ2GLTF",
    "premultipliedAlpha": true,
    "profile": {
      "api": "WebGL",
      "version": "1.0"
    },
    "version": "1.0"
  },
  "buffers": {
    "Scene_buffer": {
      "type": "arraybuffer",
      "byteLength": 2905144,
      "uri": "data:application/octet-stream;base64,"
    }
  },
  "bufferViews": {
    "bufferView_0": {
      "buffer": "Scene_buffer",
      "byteLength": 2432608,
      "byteOffset": 0,
      "target": 34962
    },
    "bufferView_1": {
      "buffer": "Scene_buffer",
      "byteLength": 472536,
      "byteOffset": 2432608,
      "target": 34963
    }
  },
  "images": {},
  "materials": {
    "material_Wood01": {
      "name": "Wood01",
      "extensions": {},
      "values": {
        "ambient": [
          0.14902,
          0.082353,
          0,
          1
        ],
        "diffuse": [
          0.14902,
          0.082353,
          0,
          1
        ],
        "emission": [
          0,
          0,
          0,
          1
        ],
        "specular": [
          0,
          0,
          0,
          1
        ],
        "shininess": 10,
        "transparency": 1
      },
      "technique": "technique0"
    },
    "material_Wood02": {
      "name": "Wood02",
      "extensions": {},
      "values": {
        "ambient": [
          0.341176,
          0.137255,
          0,
          1
        ],
        "diffuse": [
          0.341176,
          0.137255,
          0,
          1
        ],
        "emission": [
          0,
          0,
          0,
          1
        ],
        "specular": [
          0,
          0,
          0,
          1
        ],
        "shininess": 10,
        "transparency": 1
      },
      "technique": "technique0"
    },
    "material_Fence": {
      "name": "Fence",
      "extensions": {},
      "values": {
        "ambient": [
          0.172549,
          0.043137,
          0,
          1
        ],
        "diffuse": [
          0.172549,
          0.043137,
          0,
          1
        ],
        "emission": [
          0,
          0,
          0,
          1
        ],
        "specular": [
          0,
          0,
          0,
          1
        ],
        "shininess": 10,
        "transparency": 1
      },
      "technique": "technique0"
    },
    "material_Rock01": {
      "name": "Rock01",
      "extensions": {},
      "values": {
        "ambient": [
          0.14902,
          0.117647,
          0.066667,
          1
        ],
        "diffuse": [
          0.14902,
          0.117647,
          0.066667,
          1
        ],
        "emission": [
          0,
          0,
          0,
          1
        ],
        "specular": [
          0,
          0,
          0,
          1
        ],
        "shininess": 10,
        "transparency": 1
      },
      "technique": "technique0"
    },
    "material_Rock03": {
      "name": "Rock03",
      "extensions": {},
      "values": {
        "ambient": [
          0.066667,
          0.019608,
          0,
          1
        ],
        "diffuse": [
          0.066667,
          0.019608,
          0,
          1
        ],
        "emission": [
          0,
          0,
          0,
          1
        ],
        "specular": [
          0,
          0,
          0,
          1
        ],
        "shininess": 10,
        "transparency": 1
      },
      "technique": "technique0"
    },
    "material_Rock02": {
      "name": "Rock02",
      "extensions": {},
      "values": {
        "ambient": [
          0.058824,
          0.031373,
          0.007843,
          1
        ],
        "diffuse": [
          0.058824,
          0.031373,
          0.007843,
          1
        ],
        "emission": [
          0,
          0,
          0,
          1
        ],
        "specular": [
          0,
          0,
          0,
          1
        ],
        "shininess": 10,
        "transparency": 1
      },
      "technique": "technique0"
    },
    "material_Rock04": {
      "name": "Rock04",
      "extensions": {},
      "values": {
        "ambient": [
          0.164706,
          0.164706,
          0.164706,
          1
        ],
        "diffuse": [
          0.164706,
          0.164706,
          0.164706,
          1
        ],
        "emission": [
          0,
          0,
          0,
          1
        ],
        "specular": [
          0,
          0,
          0,
          1
        ],
        "shininess": 10,
        "transparency": 1
      },
      "technique": "technique0"
    },
    "material_Snow": {
      "name": "Snow",
      "extensions": {},
      "values": {
        "ambient": [
          1,
          1,
          1,
          1
        ],
        "diffuse": [
          1,
          1,
          1,
          1
        ],
        "emission": [
          0,
          0,
          0,
          1
        ],
        "specular": [
          0,
          0,
          0,
          1
        ],
        "shininess": 10,
        "transparency": 1
      },
      "technique": "technique0"
    },
    "material_Leafs": {
      "name": "Leafs",
      "extensions": {},
      "values": {
        "ambient": [
          0,
          0.078431,
          0.003922,
          1
        ],
        "diffuse": [
          0,
          0.078431,
          0.003922,
          1
        ],
        "emission": [
          0,
          0,
          0,
          1
        ],
        "specular": [
          0,
          0,
          0,
          1
        ],
        "shininess": 10,
        "transparency": 1
      },
      "technique": "technique0"
    },
    "material_DarkSalomon": {
      "name": "DarkSalomon",
      "extensions": {},
      "values": {
        "ambient": [
          0.027451,
          0.047059,
          0.027451,
          1
        ],
        "diffuse": [
          0.027451,
          0.047059,
          0.027451,
          1
        ],
        "emission": [
          0,
          0,
          0,
          1
        ],
        "specular": [
          0,
          0,
          0,
          1
        ],
        "shininess": 10,
        "transparency": 1
      },
      "technique": "technique0"
    },
    "material_Tan": {
      "name": "Tan",
      "extensions": {},
      "values": {
        "ambient": [
          0.031373,
          0.019608,
          0.007843,
          1
        ],
        "diffuse": [
          0.031373,
          0.019608,
          0.007843,
          1
        ],
        "emission": [
          0,
          0,
          0,
          1
        ],
        "specular": [
          0,
          0,
          0,
          1
        ],
        "shininess": 10,
        "transparency": 1
      },
      "technique": "technique0"
    },
    "material_Material_Standard": {
      "name": "Material_Standard",
      "extensions": {},
      "values": {
        "ambient": [
          0.588,
          0.588,
          0.588,
          1
        ],
        "diffuse": [
          0.588,
          0.588,
          0.588,
          1
        ],
        "emission": [
          0,
          0,
          0,
          1
        ],
        "specular": [
          0,
          0,
          0,
          1
        ],
        "shininess": 10,
        "transparency": 1
      },
      "technique": "technique0"
    },
    "material_Gras": {
      "name": "Gras",
      "extensions": {},
      "values": {
        "ambient": [
          0,
          0.592157,
          0.043137,
          1
        ],
        "diffuse": [
          0,
          0.592157,
          0.043137,
          0
        ],
        "emission": [
          0,
          0,
          0,
          1
        ],
        "specular": [
          0,
          0,
          0,
          1
        ],
        "shininess": 10,
        "transparency": 1
      },
      "technique": "technique1"
    }
  },
  "meshes": {
    "mesh_Scene": {
      "name": "Scene",
      "primitives": [
        {
          "attributes": {
            "POSITION": "accessor_position",
            "NORMAL": "accessor_normal",
            "TEXCOORD_0": "accessor_uv"
          },
          "indices": "accessor_index_0",
          "material": "material_Wood01",
          "mode": 4
        },
        {
          "attributes": {
            "POSITION": "accessor_position",
            "NORMAL": "accessor_normal",
            "TEXCOORD_0": "accessor_uv"
          },
          "indices": "accessor_index_1",
          "material": "material_Wood02",
          "mode": 4
        },
        {
          "attributes": {
            "POSITION": "accessor_position",
            "NORMAL": "accessor_normal",
            "TEXCOORD_0": "accessor_uv"
          },
          "indices": "accessor_index_2",
          "material": "material_Fence",
          "mode": 4
        },
        {
          "attributes": {
            "POSITION": "accessor_position",
            "NORMAL": "accessor_normal",
            "TEXCOORD_0": "accessor_uv"
          },
          "indices": "accessor_index_3",
          "material": "material_Rock01",
          "mode": 4
        },
        {
          "attributes": {
            "POSITION": "accessor_position",
            "NORMAL": "accessor_normal",
            "TEXCOORD_0": "accessor_uv"
          },
          "indices": "accessor_index_4",
          "material": "material_Rock03",
          "mode": 4
        },
        {
          "attributes": {
            "POSITION": "accessor_position",
            "NORMAL": "accessor_normal",
            "TEXCOORD_0": "accessor_uv"
          },
          "indices": "accessor_index_5",
          "material": "material_Rock02",
          "mode": 4
        },
        {
          "attributes": {
            "POSITION": "accessor_position",
            "NORMAL": "accessor_normal",
            "TEXCOORD_0": "accessor_uv"
          },
          "indices": "accessor_index_6",
          "material": "material_Rock04",
          "mode": 4
        },
        {
          "attributes": {
            "POSITION": "accessor_position",
            "NORMAL": "accessor_normal",
            "TEXCOORD_0": "accessor_uv"
          },
          "indices": "accessor_index_7",
          "material": "material_Snow",
          "mode": 4
        },
        {
          "attributes": {
            "POSITION": "accessor_position",
            "NORMAL": "accessor_normal",
            "TEXCOORD_0": "accessor_uv"
          },
          "indices": "accessor_index_8",
          "material": "material_Leafs",
          "mode": 4
        },
        {
          "attributes": {
            "POSITION": "accessor_position",
            "NORMAL": "accessor_normal",
            "TEXCOORD_0": "accessor_uv"
          },
          "indices": "accessor_index_9",
          "material": "material_DarkSalomon",
          "mode": 4
        },
        {
          "attributes": {
            "POSITION": "accessor_position",
            "NORMAL": "accessor_normal",
            "TEXCOORD_0": "accessor_uv"
          },
          "indices": "accessor_index_10",
          "material": "material_Tan",
          "mode": 4
        },
        {
          "attributes": {
            "POSITION": "accessor_position",
            "NORMAL": "accessor_normal",
            "TEXCOORD_0": "accessor_uv"
          },
          "indices": "accessor_index_11",
          "material": "material_Material_Standard",
          "mode": 4
        },
        {
          "attributes": {
            "POSITION": "accessor_position",
            "NORMAL": "accessor_normal",
            "TEXCOORD_0": "accessor_uv"
          },
          "indices": "accessor_index_12",
          "material": "material_Gras",
          "mode": 4
        }
      ]
    }
  },
  "nodes": {
    "rootNode": {
      "children": [],
      "meshes": [
        "mesh_Scene"
      ],
      "matrix": [
        1,
        0,
        0,
        0,
        0,
        1,
        0,
        0,
        0,
        0,
        1,
        0,
        0,
        0,
        0,
        1
      ]
    }
  },
  "samplers": {},
  "scene": "scene_Scene",
  "scenes": {
    "scene_Scene": {
      "nodes": [
        "rootNode"
      ]
    }
  },
  "textures": {},
  "extensionsUsed": [],
  "animations": {},
  "cameras": {},
  "techniques": {
    "technique0": {
      "attributes": {
        "a_position": "position",
        "a_normal": "normal",
        "a_texcoord_0": "texcoord_0"
      },
      "parameters": {
        "modelViewMatrix": {
          "semantic": "MODELVIEW",
          "type": 35676
        },
        "projectionMatrix": {
          "semantic": "PROJECTION",
          "type": 35676
        },
        "normalMatrix": {
          "semantic": "MODELVIEWINVERSETRANSPOSE",
          "type": 35675
        },
        "ambient": {
          "type": 35666
        },
        "diffuse": {
          "type": 35666
        },
        "emission": {
          "type": 35666
        },
        "specular": {
          "type": 35666
        },
        "shininess": {
          "type": 5126
        },
        "transparency": {
          "type": 5126
        },
        "position": {
          "semantic": "POSITION",
          "type": 35665
        },
        "normal": {
          "semantic": "NORMAL",
          "type": 35665
        },
        "texcoord_0": {
          "semantic": "TEXCOORD_0",
          "type": 5126
        }
      },
      "program": "program0",
      "states": {
        "enable": [
          2884,
          2929
        ]
      },
      "uniforms": {
        "u_modelViewMatrix": "modelViewMatrix",
        "u_projectionMatrix": "projectionMatrix",
        "u_normalMatrix": "normalMatrix",
        "u_ambient": "ambient",
        "u_diffuse": "diffuse",
        "u_emission": "emission",
        "u_specular": "specular",
        "u_shininess": "shininess",
        "u_transparency": "transparency"
      }
    },
    "technique1": {
      "attributes": {
        "a_position": "position",
        "a_normal": "normal",
        "a_texcoord_0": "texcoord_0"
      },
      "parameters": {
        "modelViewMatrix": {
          "semantic": "MODELVIEW",
          "type": 35676
        },
        "projectionMatrix": {
          "semantic": "PROJECTION",
          "type": 35676
        },
        "normalMatrix": {
          "semantic": "MODELVIEWINVERSETRANSPOSE",
          "type": 35675
        },
        "ambient": {
          "type": 35666
        },
        "diffuse": {
          "type": 35666
        },
        "emission": {
          "type": 35666
        },
        "specular": {
          "type": 35666
        },
        "shininess": {
          "type": 5126
        },
        "transparency": {
          "type": 5126
        },
        "position": {
          "semantic": "POSITION",
          "type": 35665
        },
        "normal": {
          "semantic": "NORMAL",
          "type": 35665
        },
        "texcoord_0": {
          "semantic": "TEXCOORD_0",
          "type": 5126
        }
      },
      "program": "program0",
      "states": {
        "enable": [
          2929,
          3042
        ],
        "depthMask": false,
        "functions": {
          "blendEquationSeparate": [
            32774,
            32774
          ],
          "blendFuncSeparate": [
            1,
            771,
            1,
            771
          ]
        }
      },
      "uniforms": {
        "u_modelViewMatrix": "modelViewMatrix",
        "u_projectionMatrix": "projectionMatrix",
        "u_normalMatrix": "normalMatrix",
        "u_ambient": "ambient",
        "u_diffuse": "diffuse",
        "u_emission": "emission",
        "u_specular": "specular",
        "u_shininess": "shininess",
        "u_transparency": "transparency"
      }
    }
  },
  "programs": {
    "program0": {
      "attributes": [
        "a_position",
        "a_normal",
        "a_texcoord_0"
      ],
      "fragmentShader": "fragmentShader0",
      "vertexShader": "vertexShader0"
    }
  },
  "shaders": {
    "vertexShader0": {
      "type": 35633,
      "uri": "data:text/plain;base64,"
    },
    "fragmentShader0": {
      "type": 35632,
      "uri": "data:text/plain;base64,"
    }
  },
  "skins": {},
  "extensions": {}
}
